<?xml version="1.0" encoding="UTF-8"?>
<svg version="1.1" xmlns="http://www.w3.org/2000/svg" width="256" height="256">
<path d="M0 0 C6.73359297 4.7770964 12.58282742 10.30068625 18.3828125 16.15234375 C19.67057083 17.44078941 19.67057083 17.44078941 20.98434448 18.75526428 C22.78670259 20.56062506 24.58664845 22.36839701 26.38427734 24.1784668 C29.11894039 26.9313999 31.86153429 29.67623289 34.60546875 32.41992188 C36.36505571 34.18442489 38.12418579 35.94938367 39.8828125 37.71484375 C40.69340118 38.52654526 41.50398987 39.33824677 42.33914185 40.17454529 C46.54254962 44.41272395 50.59800179 48.71855782 54.46884155 53.2636261 C56.485131 55.5501513 58.66808022 57.62434207 60.88330078 59.71533203 C71.16540182 69.47571969 78.18690715 80.23510868 79.27734375 94.671875 C79.62036384 108.33779542 76.38196993 118.69528382 67.1875 129.0390625 C61.80201836 134.13283055 53.59196847 140 46 140 C46.20496094 140.59167969 46.40992188 141.18335938 46.62109375 141.79296875 C50.27488192 152.50958189 51.8309965 162.30517326 47 173 C44.84781322 176.22349753 42.52696426 179.0439286 40 182 C46.6 182.99 53.2 183.98 60 185 C60 185.66 60 186.32 60 187 C61.155 187.0825 62.31 187.165 63.5 187.25 C68.13431315 187.82722762 72.13311785 189.36761543 76 192 C78.16551116 195.24826674 78.55156953 196.23094157 78 200 C67.8670598 211.83690997 42.99278219 212.42954085 28.3671875 213.62890625 C9.71991735 214.98150447 -8.93807103 215.09619419 -27.625 215.125 C-28.61684296 215.12767883 -29.60868591 215.13035767 -30.63058472 215.13311768 C-33.49594742 215.13899218 -36.36119901 215.13723545 -39.2265625 215.1328125 C-40.5048719 215.13577332 -40.5048719 215.13577332 -41.80900574 215.13879395 C-46.54022981 215.12076678 -51.14336762 214.83428296 -55.83901978 214.25820923 C-59.24657196 213.85105075 -62.6642861 213.60753402 -66.0859375 213.3515625 C-94.86910307 211.12236214 -94.86910307 211.12236214 -105.1875 209.5 C-105.87827637 209.39381348 -106.56905273 209.28762695 -107.28076172 209.17822266 C-115.60863565 207.74957411 -122.44763579 205.34886874 -129 200 C-131.31361802 196.52957297 -131.51020728 195.08165827 -131 191 C-128.54657363 188.45895126 -126.34810109 187.80816233 -123 187 C-122.67 186.34 -122.34 185.68 -122 185 C-119.9375 183.875 -119.9375 183.875 -118 183 C-118.47050781 182.50371094 -118.94101563 182.00742188 -119.42578125 181.49609375 C-126.30939791 173.98539814 -129.30380871 166.9502365 -129.234375 156.69140625 C-128.76921579 151.34982804 -127.34456686 146.1781831 -126 141 C-126.6290625 140.78085938 -127.258125 140.56171875 -127.90625 140.3359375 C-134.10583732 138.03910244 -139.0024361 135.32081046 -144 131 C-144.61875 130.47535156 -145.2375 129.95070312 -145.875 129.41015625 C-153.38094197 122.53510164 -157.48349886 113.1199379 -158.3359375 103.01953125 C-158.65673168 88.15782032 -155.07665915 75.80570272 -144.79296875 64.59375 C-143.35285946 63.16100072 -141.89308501 61.74748026 -140.40625 60.36328125 C-138.48407778 58.47543353 -136.7718246 56.58953722 -135.03125 54.54296875 C-129.15811443 47.75747847 -122.63076054 41.57643318 -116.25195312 35.27246094 C-109.93628271 29.02428082 -103.75898868 22.77282514 -98 16 C-72.39369806 -12.30170215 -33.28964301 -20.3408077 0 0 Z " fill="#FE9D00" transform="translate(168,38)"/>
<path d="M0 0 C5.20547118 6.21412626 7.94863022 13.31425537 10.625 20.875 C10.99367187 21.88691406 11.36234375 22.89882812 11.7421875 23.94140625 C12.47779189 25.96431833 13.20551055 27.99011655 13.92504883 30.01879883 C14.6383427 31.99700265 15.37765351 33.96602849 16.14331055 35.92456055 C19.59589327 44.84584956 20.87482588 53.62891029 18.1171875 63 C12.6232158 74.93392528 1.55399976 81.67512377 -10.31640625 86.2890625 C-45.64833892 97.21818453 -96.42459729 98.89023182 -130.625 83.3125 C-139.03612212 78.60756617 -147.40065113 71.93229145 -151.25 62.875 C-154.36183929 50.94628271 -151.53902597 40.91100458 -146.80810547 29.93603516 C-145.52309588 26.85744723 -144.46240914 23.71632525 -143.375 20.5625 C-136.35191303 0.90232979 -136.35191303 0.90232979 -127.1875 -3.625 C-94.82156051 -17.17251976 -29.47753649 -22.82552604 0 0 Z " fill="#FEEED6" transform="translate(195,144)"/>
<path d="M0 0 C6.73359297 4.7770964 12.58282742 10.30068625 18.3828125 16.15234375 C19.67057083 17.44078941 19.67057083 17.44078941 20.98434448 18.75526428 C22.78670259 20.56062506 24.58664845 22.36839701 26.38427734 24.1784668 C29.11894039 26.9313999 31.86153429 29.67623289 34.60546875 32.41992188 C36.36505571 34.18442489 38.12418579 35.94938367 39.8828125 37.71484375 C40.69340118 38.52654526 41.50398987 39.33824677 42.33914185 40.17454529 C46.54254962 44.41272395 50.59800179 48.71855782 54.46884155 53.2636261 C56.485131 55.5501513 58.66808022 57.62434207 60.88330078 59.71533203 C71.16540182 69.47571969 78.18690715 80.23510868 79.27734375 94.671875 C79.62036384 108.33779542 76.38196993 118.69528382 67.1875 129.0390625 C61.80201836 134.13283055 53.59196847 140 46 140 C46.20496094 140.59167969 46.40992188 141.18335938 46.62109375 141.79296875 C50.27488192 152.50958189 51.8309965 162.30517326 47 173 C44.84781322 176.22349753 42.52696426 179.0439286 40 182 C46.6 182.99 53.2 183.98 60 185 C60 185.66 60 186.32 60 187 C61.155 187.0825 62.31 187.165 63.5 187.25 C68.13431315 187.82722762 72.13311785 189.36761543 76 192 C78.16551116 195.24826674 78.55156953 196.23094157 78 200 C67.8670598 211.83690997 42.99278219 212.42954085 28.3671875 213.62890625 C9.71991735 214.98150447 -8.93807103 215.09619419 -27.625 215.125 C-28.61684296 215.12767883 -29.60868591 215.13035767 -30.63058472 215.13311768 C-33.49594742 215.13899218 -36.36119901 215.13723545 -39.2265625 215.1328125 C-40.5048719 215.13577332 -40.5048719 215.13577332 -41.80900574 215.13879395 C-46.54022981 215.12076678 -51.14336762 214.83428296 -55.83901978 214.25820923 C-59.24657196 213.85105075 -62.6642861 213.60753402 -66.0859375 213.3515625 C-94.86910307 211.12236214 -94.86910307 211.12236214 -105.1875 209.5 C-105.87827637 209.39381348 -106.56905273 209.28762695 -107.28076172 209.17822266 C-115.60863565 207.74957411 -122.44763579 205.34886874 -129 200 C-131.31361802 196.52957297 -131.51020728 195.08165827 -131 191 C-128.54657363 188.45895126 -126.34810109 187.80816233 -123 187 C-122.67 186.34 -122.34 185.68 -122 185 C-119.9375 183.875 -119.9375 183.875 -118 183 C-118.47050781 182.50371094 -118.94101563 182.00742188 -119.42578125 181.49609375 C-126.30939791 173.98539814 -129.30380871 166.9502365 -129.234375 156.69140625 C-128.76921579 151.34982804 -127.34456686 146.1781831 -126 141 C-126.6290625 140.78085938 -127.258125 140.56171875 -127.90625 140.3359375 C-134.10583732 138.03910244 -139.0024361 135.32081046 -144 131 C-144.61875 130.47535156 -145.2375 129.95070312 -145.875 129.41015625 C-153.38094197 122.53510164 -157.48349886 113.1199379 -158.3359375 103.01953125 C-158.65673168 88.15782032 -155.07665915 75.80570272 -144.79296875 64.59375 C-143.35285946 63.16100072 -141.89308501 61.74748026 -140.40625 60.36328125 C-138.48407778 58.47543353 -136.7718246 56.58953722 -135.03125 54.54296875 C-129.15811443 47.75747847 -122.63076054 41.57643318 -116.25195312 35.27246094 C-109.93628271 29.02428082 -103.75898868 22.77282514 -98 16 C-72.39369806 -12.30170215 -33.28964301 -20.3408077 0 0 Z M-101 24 C-102.11188601 25.27289364 -103.21843864 26.55046083 -104.3203125 27.83203125 C-108.380424 32.51750873 -112.76937918 36.84222536 -117.1875 41.1875 C-121.71030366 45.63682187 -126.09600979 49.9880037 -130 55 C-132.41383603 57.49481136 -134.88486276 59.89319263 -137.4296875 62.25390625 C-146.53615631 70.85122744 -154.21843358 81.55515506 -155.27734375 94.3515625 C-155.56941967 105.26351874 -153.19685505 113.96668361 -147 123 C-144.39496936 125.50806279 -144.39496936 125.50806279 -142 127 C-143.12367549 124.56536977 -144.31053187 122.58929656 -145.9375 120.4375 C-151.22818105 112.51138607 -152.01181557 102.25088518 -151 93 C-150.34 92.01 -149.68 91.02 -149 90 C-148.01 90.66 -147.02 91.32 -146 92 C-132.29025606 94.85162674 -115.975816 83.77536292 -104 78 C-104.495 79.485 -104.495 79.485 -105 81 C-105.09416778 83.01906808 -105.12991192 85.04124313 -105.125 87.0625 C-105.12757812 88.12597656 -105.13015625 89.18945312 -105.1328125 90.28515625 C-105.18438455 92.96704384 -105.18438455 92.96704384 -104 95 C-101.16636189 94.37635743 -98.33309041 93.75112186 -95.5 93.125 C-94.70851562 92.95097656 -93.91703125 92.77695313 -93.1015625 92.59765625 C-91.92207031 92.33662109 -91.92207031 92.33662109 -90.71875 92.0703125 C-89.91824219 91.89322754 -89.11773437 91.71614258 -88.29296875 91.53369141 C-86.27618629 91.06428271 -84.27663669 90.52209253 -82.28125 89.96875 C-76.29866628 88.45218594 -70.12475089 88.00881794 -64 87.375 C-62.12248047 87.17390625 -62.12248047 87.17390625 -60.20703125 86.96875 C-57.13851681 86.64081716 -54.06955231 86.31804539 -51 86 C-52.1603204 78.12416456 -52.1603204 78.12416456 -56.125 71.375 C-56.66382812 70.72273438 -57.20265625 70.07046875 -57.7578125 69.3984375 C-58.16773437 68.93695313 -58.57765625 68.47546875 -59 68 C-43.83931998 65.78832433 -28.35930277 66.58997552 -13.1875 68.3125 C-12.13385254 68.43012695 -11.08020508 68.54775391 -9.99462891 68.66894531 C-3.11943082 69.52220748 3.3715203 71.00208789 10 73 C10.72904541 73.21197021 11.45809082 73.42394043 12.20922852 73.64233398 C24.45270556 77.26976273 35.74503966 82.43328965 47.13085938 88.17724609 C48.96471715 89.13429161 48.96471715 89.13429161 51 89 C50.8453125 90.918125 50.8453125 90.918125 50.6875 92.875 C50.71952759 99.66484935 53.35519427 105.21111925 58.0078125 110.1171875 C60.87706454 112.66881016 63.80466024 114.8697735 67 117 C66.47599609 117.81404297 66.47599609 117.81404297 65.94140625 118.64453125 C65.48636719 119.35996094 65.03132812 120.07539063 64.5625 120.8125 C63.88380859 121.87404297 63.88380859 121.87404297 63.19140625 122.95703125 C61.85913661 125.08134552 61.85913661 125.08134552 61 128 C67.39387272 125.45650338 71.16341101 118.25184187 73.875 112.1875 C77.76742599 101.1589597 76.59731837 90.59624803 72 80 C67.34510913 71.2705384 61.08858972 64.61246249 54 57.8125 C48.33663119 52.31709639 42.74242414 46.85445493 37.61816406 40.84741211 C34.86137968 37.70006941 31.86473809 34.79902956 28.875 31.875 C25.51639192 28.58924676 22.20879422 25.33540025 19.2265625 21.69921875 C17.01125094 19.0136393 14.74219653 17.12520231 12 15 C10.33333333 13.33333333 8.66666667 11.66666667 7 10 C1.01841716 4.04636848 -5.34894703 0.49032736 -13 -3 C-14.155 -3.5775 -15.31 -4.155 -16.5 -4.75 C-49.97431652 -16.70511304 -78.65910895 0.05626682 -101 24 Z M-109 109 C-112.27651771 114.36157443 -114.07546492 120.02325243 -115.99536133 125.99072266 C-117.97446793 132.09555779 -120.33351277 138.01705361 -122.765625 143.953125 C-125.90703352 151.70723463 -126.46183805 160.9130658 -124.12890625 169.03125 C-119.02425716 179.87653725 -109.31158605 187.11897035 -98.33203125 191.4453125 C-67.5940863 201.98249709 -32.66760383 201.18930624 -1 196 C-0.24638184 195.88253418 0.50723633 195.76506836 1.28369141 195.64404297 C17.161795 193.12073574 30.78083682 187.43904598 41.52734375 175.1875 C46.75529261 167.42184652 47.27826055 159.03055919 46 150 C44.81965903 145.19617716 42.84331017 140.70497863 40.89404297 136.17285156 C39.59474438 133.01508056 38.49941022 129.79349393 37.38037109 126.56835938 C32.58088903 112.33964639 32.58088903 112.33964639 21.625 102.6875 C-8.62868533 89.3152972 -83.34745389 81.42351293 -109 109 Z " fill="#D67D08" transform="translate(168,38)"/>
<path d="M0 0 C1.95873047 0.2784375 1.95873047 0.2784375 3.95703125 0.5625 C5.46330078 0.7790625 5.46330078 0.7790625 7 1 C7 1.66 7 2.32 7 3 C8.7325 3.12375 8.7325 3.12375 10.5 3.25 C15.13431315 3.82722762 19.13311785 5.36761543 23 8 C25.16551116 11.24826674 25.55156953 12.23094157 25 16 C14.8670598 27.83690997 -10.00721781 28.42954085 -24.6328125 29.62890625 C-43.28008265 30.98150447 -61.93807103 31.09619419 -80.625 31.125 C-81.61684296 31.12767883 -82.60868591 31.13035767 -83.63058472 31.13311768 C-86.49594742 31.13899218 -89.36119901 31.13723545 -92.2265625 31.1328125 C-93.5048719 31.13577332 -93.5048719 31.13577332 -94.80900574 31.13879395 C-99.54022981 31.12076678 -104.14336762 30.83428296 -108.83901978 30.25820923 C-112.24657196 29.85105075 -115.6642861 29.60753402 -119.0859375 29.3515625 C-147.86910307 27.12236214 -147.86910307 27.12236214 -158.1875 25.5 C-159.22366455 25.34072021 -159.22366455 25.34072021 -160.28076172 25.17822266 C-168.60863565 23.74957411 -175.44763579 21.34886874 -182 16 C-184.31361802 12.52957297 -184.51020728 11.08165827 -184 7 C-181.54657363 4.45895126 -179.34810109 3.80816233 -176 3 C-175.67 2.34 -175.34 1.68 -175 1 C-172.5 0 -172.5 0 -169 0 C-166.70703964 1.27789491 -164.65319382 2.78390592 -162.51953125 4.3125 C-134.00142037 23.41300217 -83.40923424 20.08174158 -51.25390625 14.15234375 C-40.1821739 11.95696825 -28.98225958 9.42860913 -20.125 2.125 C-13.85464311 -2.61625186 -7.37521472 -1.14814154 0 0 Z " fill="#000000" transform="translate(221,222)"/>
<path d="M0 0 C1.05372803 0.11762695 2.10745605 0.23525391 3.19311523 0.35644531 C10.06858998 1.20980953 16.5577442 2.69377604 23.1875 4.6875 C24.26511597 4.99747925 24.26511597 4.99747925 25.36450195 5.3137207 C35.0441568 8.14448613 44.44485253 11.79245302 53.6875 15.8125 C55.2019873 16.41288086 55.2019873 16.41288086 56.74707031 17.02539062 C59.66017498 18.35052846 61.85570602 19.48892725 64.1875 21.6875 C65.27364693 24.7940229 65.66918952 27.51345946 65.86889648 30.79296875 C66.40804374 35.69115257 68.86612494 39.15723343 72.1875 42.6875 C75.0553665 44.94717295 78.01264756 46.88841695 81.1875 48.6875 C76.08577706 60.17350193 67.02079343 65.93922185 56.1875 71.6875 C55.5275 71.6875 54.8675 71.6875 54.1875 71.6875 C53.1975 69.0475 52.2075 66.4075 51.1875 63.6875 C51.74179688 63.30078125 52.29609375 62.9140625 52.8671875 62.515625 C53.59164062 61.99484375 54.31609375 61.4740625 55.0625 60.9375 C55.78179687 60.42703125 56.50109375 59.9165625 57.2421875 59.390625 C59.89169989 57.07097158 60.90286511 55.02755098 61.62890625 51.609375 C61.87507401 47.19423704 61.38531904 44.19626437 58.6875 40.625 C35.50097099 17.39228268 -7.61346716 19.16617808 -37.8125 18.6875 C-37.99208252 18.02508301 -38.17166504 17.36266602 -38.35668945 16.68017578 C-39.72484352 11.84770903 -41.01560072 7.67433901 -44 3.5625 C-44.52980469 2.81742187 -45.05960937 2.07234375 -45.60546875 1.3046875 C-46.00378906 0.77101563 -46.40210937 0.23734375 -46.8125 -0.3125 C-31.22999944 -2.29021757 -15.58204098 -1.76795153 0 0 Z " fill="#CD6A17" transform="translate(154.8125,105.3125)"/>
<path d="M0 0 C2.72444789 0.00315977 5.44780406 -0.02042235 8.17211914 -0.0456543 C24.34903236 -0.10462548 40.68016272 1.30798451 56.23657227 6.00317383 C57.09202637 6.25591064 57.94748047 6.50864746 58.82885742 6.76904297 C69.85244046 10.18325455 82.33594707 14.70905727 89.42407227 24.31567383 C91.16358652 27.79470233 90.873089 31.51186066 90.42407227 35.31567383 C87.82476082 40.82621409 84.54208139 42.51480302 79.42407227 45.31567383 C78.96516602 44.0859082 78.50625977 42.85614258 78.03344727 41.58911133 C77.4140481 39.95614989 76.79423443 38.32334565 76.17407227 36.69067383 C75.72354492 35.47831055 75.72354492 35.47831055 75.26391602 34.24145508 C71.89022734 25.41244003 68.63402781 20.70107356 59.92016602 16.69458008 C25.38196416 3.07225018 -24.78555332 3.1524802 -59.13061523 17.97192383 C-68.56455725 23.15607088 -70.63582346 30.99423011 -73.74389648 40.77661133 C-74.57592773 43.31567383 -74.57592773 43.31567383 -75.57592773 45.31567383 C-79.96921995 44.15274354 -82.61261862 41.91375765 -85.38842773 38.43676758 C-87.63824875 34.41817281 -87.70450196 30.72611422 -86.57592773 26.31567383 C-82.8109787 19.56267001 -76.29074746 15.7217418 -69.57592773 12.31567383 C-68.72772461 11.88512695 -67.87952148 11.45458008 -67.00561523 11.01098633 C-60.68832946 8.11331393 -54.17739003 6.28627353 -47.45092773 4.62817383 C-46.64743896 4.42571045 -45.8439502 4.22324707 -45.01611328 4.01464844 C-30.20835658 0.56003322 -15.14207063 -0.03650647 0 0 Z " fill="#633A1D" transform="translate(126.575927734375,123.684326171875)"/>
<path d="M0 0 C1.37796979 0.7494683 2.73290989 1.54271782 4.0625 2.375 C4.83078125 2.82230469 5.5990625 3.26960938 6.390625 3.73046875 C15.08843596 9.10179903 20.2877537 15.44514948 23.0625 25.375 C23.8177327 29.72914769 23.41508082 32.70761488 21.3125 36.6875 C17.56614053 41.16231825 14.64861262 43.10567703 8.76171875 43.71875 C-3.01609988 44.33645222 -11.20625633 41.68103042 -20.66796875 34.22265625 C-27.31422501 28.0534559 -30.97736526 21.86316239 -31.5625 12.75 C-31.38281982 7.82261667 -30.03389148 5.21950534 -26.640625 1.71484375 C-19.87020945 -3.61142353 -7.74510746 -3.29579041 0 0 Z " fill="#FFDC39" transform="translate(168.9375,59.625)"/>
<path d="M0 0 C0 0.33 0 0.66 0 1 C-1.17018677 0.9685791 -1.17018677 0.9685791 -2.36401367 0.93652344 C-5.97170605 0.85228263 -9.57919047 0.80100084 -13.1875 0.75 C-14.41404297 0.71648438 -15.64058594 0.68296875 -16.90429688 0.6484375 C-24.69227032 0.56624253 -31.12414092 1.54743767 -38.48168945 4.13378906 C-41 5 -41 5 -43 5 C-42.84015625 5.57234375 -42.6803125 6.1446875 -42.515625 6.734375 C-40.74059516 14.53374853 -42.15543372 21.41009512 -46.32421875 28.13671875 C-50.40879827 33.93660726 -55.14515899 37.86144236 -62 40 C-63.90869321 39.95575211 -65.81871507 39.90594693 -67.72290039 39.76757812 C-74.3937773 39.29091125 -74.3937773 39.29091125 -80.578125 41.4921875 C-82.61023994 43.5483038 -84.30949246 45.6568025 -86 48 C-87.02850763 49.21955358 -88.07042549 50.42791542 -89.125 51.625 C-89.67800781 52.28113281 -90.23101562 52.93726563 -90.80078125 53.61328125 C-92.63175275 55.60035689 -94.49250337 57.40689383 -96.48046875 59.23046875 C-105.53786006 67.29419288 -105.53786006 67.29419288 -108.8125 78.60546875 C-109.26078356 84.33042341 -112.81027808 88.05082663 -116.8125 91.875 C-120.46217416 94.94481939 -123.21452618 95.61716209 -128 96 C-131.28979245 100.93468867 -130.50282682 106.23301097 -130 112 C-128.47712258 119.44975172 -126.51192316 125.64118581 -121 131 C-121.495 131.99 -121.495 131.99 -122 133 C-131.07435789 123.29254738 -134.46434137 113.99003836 -134.33984375 100.765625 C-133.04433424 86.41078395 -124.06490953 75.53206138 -114 66 C-110.43862607 62.50211896 -107.04104853 58.88269381 -103.6875 55.1875 C-98.20338204 49.18533547 -92.49835197 43.42733941 -86.69604492 37.7331543 C-82.2376408 33.33327271 -78.09145628 28.74038886 -74 24 C-63.94941756 12.7941782 -52.26431119 4.89885435 -38 0 C-37.30261719 -0.24492187 -36.60523437 -0.48984375 -35.88671875 -0.7421875 C-24.76434714 -3.89532586 -11.05606543 -2.72748751 0 0 Z " fill="#FEF78F" transform="translate(147,32)"/>
<path d="M0 0 C0.495 0.99 0.495 0.99 1 2 C0.67 2.66 0.34 3.32 0 4 C-0.07116382 6.37402501 -0.08409085 8.75000677 -0.0625 11.125 C-0.05347656 12.40632813 -0.04445312 13.68765625 -0.03515625 15.0078125 C-0.02355469 15.99523437 -0.01195312 16.98265625 0 18 C-1.07378906 18.556875 -2.14757813 19.11375 -3.25390625 19.6875 C-14.88462923 25.38893894 -14.88462923 25.38893894 -23 35 C-23.96515115 39.19319045 -24.08010313 42.95348881 -22.03515625 46.828125 C-19.49892013 50.03690935 -16.2690614 52.57155439 -13 55 C-13.99 57.31 -14.98 59.62 -16 62 C-18.64 61.34 -21.28 60.68 -24 60 C-24 59.34 -24 58.68 -24 58 C-24.825 57.79375 -25.65 57.5875 -26.5 57.375 C-35.05644642 54.0135389 -40.62064989 47.99405179 -45 40 C-48.19997163 32.35184086 -48.86769438 24.21492471 -48 16 C-46.98046875 13.62109375 -46.98046875 13.62109375 -46 12 C-45.42894531 12.3196875 -44.85789062 12.639375 -44.26953125 12.96875 C-39.07778091 15.32782417 -33.93991134 14.60789848 -28.609375 12.9375 C-18.86164487 9.12136735 -9.42472058 4.54509169 0 0 Z " fill="#CD6A17" transform="translate(64,115)"/>
<path d="M0 0 C6.69364464 4.15005968 11.93024888 8.65346745 15.125 15.9375 C15.59577421 18.5971731 15.838594 21.24862038 16.125 23.9375 C15.41706299 24.00219482 14.70912598 24.06688965 13.97973633 24.13354492 C-0.99024854 25.5421575 -15.39284559 27.55877236 -29.92871094 31.43457031 C-32.2280447 32.02872831 -34.53882718 32.51188147 -36.875 32.9375 C-39.32001227 28.04747545 -38.56873882 21.30636426 -37.07421875 16.203125 C-33.80766381 8.97404809 -28.42106309 2.84933749 -21.0234375 -0.26171875 C-14.5543401 -1.90708472 -6.35966624 -2.37936705 0 0 Z " fill="#F3D13D" transform="translate(100.875,100.0625)"/>
<path d="M0 0 C2.15001484 2.2591065 3.46356484 4.25636578 5 7 C3 8 3 8 0.9609375 7.36328125 C0.10757813 7.01652344 -0.74578125 6.66976562 -1.625 6.3125 C-21.11805855 -1.01951943 -41.70840011 -3.52767565 -62.42163086 -3.28125 C-65.0930775 -3.24963817 -67.76393001 -3.24020769 -70.43554688 -3.234375 C-95.62101195 -3.12269457 -116.6921822 2.62631586 -140 12 C-137.23359329 4.71998234 -134.31216057 -0.12141879 -127.1875 -3.625 C-93.17195818 -17.86299933 -31.69661379 -21.55369738 0 0 Z " fill="#EDD6B7" transform="translate(195,144)"/>
<path d="M0 0 C5.07180756 4.24829242 9.83741455 8.68357382 14.5 13.375 C15.12519531 13.99632813 15.75039062 14.61765625 16.39453125 15.2578125 C19.53007746 18.39985053 22.5470026 21.59144339 25.4375 24.9609375 C28.54474887 28.56188593 31.87394746 31.84926387 35.30615234 35.13842773 C46.79068961 46.1922629 55.844964 57.37807107 56.375 74 C56.01858341 85.16296762 51.78227072 94.40991204 44.40625 102.81640625 C43 104 43 104 41 104 C42.81309003 100.22272911 44.9073259 96.62730178 47 93 C46.41992188 92.59910156 45.83984375 92.19820313 45.2421875 91.78515625 C38.69958153 87.0239529 33.6028174 81.8084522 31 74 C30.25158856 64.34426551 30.68303433 57.35899186 36.8125 49.75 C38.2068752 48.09785221 38.2068752 48.09785221 37.81640625 46.17578125 C36.74947818 43.33234138 35.18819598 41.6658985 33.125 39.4375 C32.3103125 38.55449219 31.495625 37.67148438 30.65625 36.76171875 C28.03135641 34.03260145 25.3391533 31.39006003 22.625 28.75 C16.8961891 23.09350228 12.06684187 16.90695185 7.18652344 10.51953125 C5.63384668 8.53108267 3.98679992 6.63653512 2.3125 4.75 C0 2 0 2 0 0 Z " fill="#F4D23E" transform="translate(188,62)"/>
<path d="M0 0 C0.99 0 1.98 0 3 0 C2.67 0.99 2.34 1.98 2 3 C-0.25479728 12.24960635 -0.74289618 23.40767303 4.26953125 31.76171875 C16.51158877 47.59625365 35.05943173 52.07357824 53.96875 54.75390625 C77.23166796 57.59101583 100.91596343 56.78273442 124 53 C124.75361816 52.88253418 125.50723633 52.76506836 126.28369141 52.64404297 C141.48042186 50.2290178 155.52739573 44.92615186 165.74609375 32.96875 C169.30927587 27.37422106 170.48343088 22.66549649 170.3125 16.0625 C170.30412109 15.36318359 170.29574219 14.66386719 170.28710938 13.94335938 C170.17194005 9.00029207 169.55860895 4.67582685 168 0 C169.32 0 170.64 0 172 0 C175.12740404 11.00176065 176.75578798 20.23153722 172 31 C162.94953286 46.13439227 148.0864996 52.02139205 131.73046875 56.15625 C116.60582201 59.57711251 101.27053871 60.23712267 85.8125 60.25 C85.07588135 60.25067474 84.3392627 60.25134949 83.58032227 60.25204468 C56.33447457 60.21278024 25.97928478 59.01786986 5.1640625 39.29296875 C-1.62751117 32.09684286 -4.47212428 24.30955925 -4.265625 14.44921875 C-3.02683363 3.02683363 -3.02683363 3.02683363 0 0 Z " fill="#997956" transform="translate(43,180)"/>
<path d="M0 0 C-0.40926691 8.04891585 -2.91974648 14.60020729 -6 22 C-10.16524763 32.00759167 -13.36813077 42.43193733 -9.9375 53.25 C-5.38748044 63.42549828 5.67081459 68.66522064 15.34375 73.06640625 C26.88751911 77.30652144 39.81380138 78.44781288 52 79 C52 79.33 52 79.66 52 80 C50.02 80 48.04 80 46 80 C46 80.66 46 81.32 46 82 C26.41796971 82.41524395 4.81586709 77.05713279 -9.875 63.6875 C-16.28243216 56.67792362 -18.77152152 49.86706585 -18.66430664 40.30688477 C-18.26773294 32.98519614 -15.74022009 26.72190522 -12.85546875 20.06152344 C-11.95831705 17.8995517 -11.17236166 15.71943583 -10.40625 13.5078125 C-10.14924316 12.77433594 -9.89223633 12.04085937 -9.62744141 11.28515625 C-9.13681663 9.87663971 -8.65431047 8.46526098 -8.18115234 7.05078125 C-7.15406561 4.19153484 -6.47294823 2.33268221 -3.9453125 0.5546875 C-2 0 -2 0 0 0 Z " fill="#FCF4E9" transform="translate(61,154)"/>
<path d="M0 0 C2.72599196 4.08898794 2.49208955 7.20407963 2 12 C0.33166007 19.48650017 -4.05436828 25.71563254 -10.0625 30.375 C-14.91154225 33.0574489 -18.53947224 34.27799763 -24.125 34.25 C-25.67574219 34.25773437 -25.67574219 34.25773437 -27.2578125 34.265625 C-30 34 -30 34 -33 32 C-28.62492701 27.60025412 -24.24661472 23.20376764 -19.86523438 18.81030273 C-18.37442402 17.31445586 -16.88451138 15.81771376 -15.39550781 14.32006836 C-13.25820111 12.17066638 -11.1177132 10.02447815 -8.9765625 7.87890625 C-8.30879791 7.20598038 -7.64103333 6.5330545 -6.95303345 5.83973694 C-6.3325412 5.21916916 -5.71204895 4.59860138 -5.07275391 3.95922852 C-4.52648346 3.41073746 -3.98021301 2.8622464 -3.41738892 2.2971344 C-2 1 -2 1 0 0 Z " fill="#FFDC39" transform="translate(103,38)"/>
<path d="M0 0 C5.07180756 4.24829242 9.83741455 8.68357382 14.5 13.375 C15.12519531 13.99632813 15.75039062 14.61765625 16.39453125 15.2578125 C19.53007746 18.39985053 22.5470026 21.59144339 25.4375 24.9609375 C28.54474887 28.56188593 31.87394746 31.84926387 35.30615234 35.13842773 C46.79068961 46.1922629 55.844964 57.37807107 56.375 74 C56.01858341 85.16296762 51.78227072 94.40991204 44.40625 102.81640625 C43 104 43 104 41 104 C42.05347533 101.87841774 43.121574 99.76737284 44.21875 97.66796875 C44.85296875 96.44013672 44.85296875 96.44013672 45.5 95.1875 C45.9228125 94.37667969 46.345625 93.56585938 46.78125 92.73046875 C50.84299851 83.63058988 51.60223114 73.33440217 49.16015625 63.6796875 C43.79949011 49.85386171 33.08119368 38.92359385 22.625 28.75 C16.8961891 23.09350228 12.06684187 16.90695185 7.18652344 10.51953125 C5.63384668 8.53108267 3.98679992 6.63653512 2.3125 4.75 C0 2 0 2 0 0 Z " fill="#FDF58C" transform="translate(188,62)"/>
<path d="M0 0 C2.92937654 1.81310142 5.43647949 3.87295899 7 7 C7.40417552 9.96395382 7.56382171 12.08904926 5.953125 14.69140625 C3.2305096 18.01459858 1.5226254 19.79236926 -2.75 20.375 C-7.2753858 19.8528401 -8.7671103 18.15770622 -12 15 C-13.45147903 12.09704195 -13.37239025 10.22738221 -13 7 C-9.6221874 1.54256397 -6.46231639 -0.74565189 0 0 Z " fill="#6C4930" transform="translate(92,154)"/>
<path d="M0 0 C2.39276879 1.43566128 3.92456161 2.6993171 5.8125 4.6875 C5.16925781 4.81278076 4.52601562 4.93806152 3.86328125 5.06713867 C-8.09772676 7.41860289 -19.80383789 9.8798984 -31.3359375 13.8671875 C-34.1875 14.6875 -34.1875 14.6875 -36.1875 13.6875 C-32.63165113 7.61292485 -27.96376503 2.2700841 -21.36328125 -0.49609375 C-14.7113919 -2.20611204 -6.47043228 -2.6268849 0 0 Z " fill="#FEDB39" transform="translate(101.1875,100.3125)"/>
<path d="M0 0 C4.27876075 2.45632562 4.27876075 2.45632562 6 5 C6.80879146 8.17206862 6.7601479 10.82119968 6 14 C3.48703032 17.65522863 1.76405021 18.7499472 -2.4375 20.125 C-7.34565097 19.95278418 -8.61507864 18.46551473 -12 15 C-13.6665436 11.66691281 -13.41627795 8.32452074 -12.3125 4.8125 C-9.16999488 0.47285007 -5.18894529 -0.84717474 0 0 Z " fill="#6A472E" transform="translate(171,154)"/>
<path d="M0 0 C2.125 0.375 2.125 0.375 4 1 C4 2.65 4 4.3 4 6 C6.78938212 6.41890218 6.78938212 6.41890218 10 6 C12.64587234 3.60414714 12.64587234 3.60414714 15 1 C17.3125 0.1875 17.3125 0.1875 19 0 C19.61875 0.804375 20.2375 1.60875 20.875 2.4375 C22.74164041 5.03874519 22.74164041 5.03874519 25 6 C26.99960012 6.039992 29.00047242 6.04346799 31 6 C31 4.02 31 2.04 31 0 C33.475 0.495 33.475 0.495 36 1 C36.75 3.75 36.75 3.75 37 7 C35.15858081 9.34939689 33.6600106 10.6699947 31 12 C25.67156248 11.95812623 21.36159653 11.23602323 17 8 C16.401875 8.474375 15.80375 8.94875 15.1875 9.4375 C11.23581623 12.26013127 7.75182337 12.49156793 3 12 C-0.17922397 9.63249279 -1.79216091 8.27672585 -2.4375 4.3125 C-2 2 -2 2 0 0 Z " fill="#704D34" transform="translate(111,170)"/>
<path d="M0 0 C3.64214008 3.20701715 5.6773957 6.81078074 7.75 11.125 C8.06582031 11.75792969 8.38164062 12.39085938 8.70703125 13.04296875 C11 17.71824269 11 17.71824269 11 20 C5.47252347 22.76373827 0.2937803 22.6553658 -5.5 21 C-6.325 20.67 -7.15 20.34 -8 20 C-7.86339106 11.6668545 -4.793154 6.69539788 0 0 Z " fill="#FEDB39" transform="translate(227,108)"/>
<path d="M0 0 C5.21569639 4.61790883 6.69538996 11.21420272 7.4296875 17.9296875 C7.89118907 27.354625 6.39069931 34.43919046 0.4609375 41.94921875 C-3.81270237 46.61781585 -9.1884062 50.480288 -15 53 C-15.99 52.67 -16.98 52.34 -18 52 C-16.91332031 51.27296875 -16.91332031 51.27296875 -15.8046875 50.53125 C-7.26446486 44.61002897 -1.14775765 39.13089917 1.53515625 28.84375 C2.92396968 20.34747963 2.43333873 12.2125182 0 4 C0 2.68 0 1.36 0 0 Z " fill="#FCF4E9" transform="translate(207,174)"/>
<path d="M0 0 C-0.38573788 8.50552031 -2.6386187 13.98827597 -8.8125 19.875 C-12.55769073 23.01590104 -15.15184669 23.89899681 -20 24 C-20.33 23.34 -20.66 22.68 -21 22 C-17.13847948 15.85419973 -12.80009173 10.49987423 -7.6875 5.375 C-7.15995117 4.84229492 -6.63240234 4.30958984 -6.08886719 3.76074219 C-2.25898463 0 -2.25898463 0 0 0 Z " fill="#FEDD3B" transform="translate(39,104)"/>
<path d="M0 0 C1.9375 1.875 1.9375 1.875 2.5625 4.875 C1.9375 7.875 1.9375 7.875 0 9.75 C-4.93613854 11.56327538 -9.75168936 11.88950223 -14.625 9.75 C-16.0625 7.875 -16.0625 7.875 -16.5625 4.875 C-16.0625 1.875 -16.0625 1.875 -14.625 0 C-9.75168936 -2.13950223 -4.93613854 -1.81327538 0 0 Z " fill="#F58C6C" transform="translate(197.0625,172.125)"/>
<path d="M0 0 C2.625 1.8125 2.625 1.8125 3.5 4.5 C3.54125 5.263125 3.5825 6.02625 3.625 6.8125 C1.34929062 9.23992334 -0.45933484 10.67196981 -3.79296875 11.18359375 C-10.46121156 11.35103855 -10.46121156 11.35103855 -13.6484375 9.47265625 C-15.375 7.8125 -15.375 7.8125 -15.9375 4.8125 C-15.375 1.8125 -15.375 1.8125 -13.3125 -0.0625 C-8.4677203 -1.91794755 -4.86735606 -1.71258824 0 0 Z " fill="#F58C6C" transform="translate(72.375,172.1875)"/>
<path d="M0 0 C13.04227517 -0.12368859 25.98287961 0.17538604 39 1 C35.37123251 3.41917833 33.67107866 3.24520963 29.35546875 3.23046875 C28.03869141 3.22853516 26.72191406 3.22660156 25.36523438 3.22460938 C24.67905029 3.21840576 23.99286621 3.21220215 23.28588867 3.20581055 C21.20544044 3.18765655 19.12544076 3.18530034 17.04492188 3.18554688 C11.26164842 3.1642176 5.70244015 3.09045231 0 2 C0 1.34 0 0.68 0 0 Z " fill="#F0E5D5" transform="translate(107,234)"/>
<path d="M0 0 C0.33 0 0.66 0 1 0 C1.23074219 0.86882812 1.46148438 1.73765625 1.69921875 2.6328125 C3.55908933 9.20484529 5.05993751 14.19716146 10 19 C9.67 19.66 9.34 20.32 9 21 C4.34421619 16.01939406 -0.03974199 10.64928427 -2 4 C-1.125 1.69921875 -1.125 1.69921875 0 0 Z " fill="#F5DD7A" transform="translate(16,144)"/>
<path d="M0 0 C0.69738281 0.00902344 1.39476563 0.01804687 2.11328125 0.02734375 C3.82566958 0.05080112 5.53788004 0.08666896 7.25 0.125 C7.25 0.455 7.25 0.785 7.25 1.125 C-5.23519362 3.60563781 -5.23519362 3.60563781 -11.75 2.125 C-8.00764681 -0.32489101 -4.30774581 -0.10586143 0 0 Z " fill="#FDEE83" transform="translate(120.75,30.875)"/>
<path d="M0 0 C0.66 0.33 1.32 0.66 2 1 C1.49259538 5.39750672 -1.08293314 7.86948922 -4 11 C-4.66 11 -5.32 11 -6 11 C-4.18690997 7.22272911 -2.0926741 3.62730178 0 0 Z " fill="#F7E27E" transform="translate(235,155)"/>
<path d="M0 0 C1.17539996 0.92652701 2.34010577 1.86663387 3.5 2.8125 C4.1496875 3.33457031 4.799375 3.85664062 5.46875 4.39453125 C7 6 7 6 7 9 C3.99234114 6.15063897 1.72154788 3.76488042 0 0 Z " fill="#FEE16E" transform="translate(188,62)"/>
</svg>
