<?xml version="1.0" standalone="no"?>
<!DOCTYPE svg PUBLIC "-//W3C//DTD SVG 20010904//EN"
 "http://www.w3.org/TR/2001/REC-SVG-20010904/DTD/svg10.dtd">
<svg version="1.0" xmlns="http://www.w3.org/2000/svg"
 width="32.000000pt" height="32.000000pt" viewBox="0 0 32.000000 32.000000"
 preserveAspectRatio="xMidYMid meet">

<g transform="translate(0.000000,32.000000) scale(0.100000,-0.100000)"
fill="#000000" stroke="none">
<path d="M0 161 l0 -158 160 -2 160 -2 -2 78 -2 78 -3 -72 -4 -73 -122 2 -122
2 118 3 117 4 0 139 0 140 -140 0 c-139 0 -140 0 -139 -22 1 -17 2 -19 6 -5 6
21 39 23 47 1 9 -22 8 -24 -11 -25 -10 0 -13 -3 -6 -5 8 -4 8 -14 -3 -41 -8
-19 -14 -54 -12 -76 l3 -42 11 42 c7 25 7 40 1 36 -11 -7 1 36 16 55 6 7 19
11 29 9 16 -5 17 -3 3 16 -17 24 -20 47 -7 47 5 0 14 -10 20 -22 l11 -23 0 23
c1 12 5 22 10 22 15 0 23 -38 12 -57 -6 -10 -11 -13 -11 -6 0 6 -15 -2 -33
-18 -27 -24 -33 -35 -29 -60 4 -27 5 -28 18 -12 13 17 13 17 14 -2 1 -18 1
-19 11 -3 7 12 6 24 -1 37 -14 26 -13 28 11 34 27 7 69 -9 69 -26 0 -8 -12
-20 -27 -27 -16 -7 -23 -15 -15 -17 6 -3 12 -11 12 -19 0 -17 17 -19 23 -1 3
8 10 7 26 -7 15 -13 21 -15 21 -6 0 22 -42 101 -56 107 -9 3 -14 20 -14 44 0
50 20 51 21 2 l1 -38 10 38 c7 26 16 37 29 37 16 0 17 -3 7 -25 -6 -14 -8 -28
-3 -33 4 -4 10 -2 12 4 8 24 32 49 39 41 12 -11 -31 -62 -52 -62 -19 0 -20 -7
-3 -35 7 -13 8 -13 9 0 0 9 8 3 19 -14 11 -17 18 -33 15 -38 -3 -4 0 -8 5 -8
6 0 11 -9 11 -20 0 -11 -7 -20 -15 -20 -8 0 -17 -11 -21 -25 -5 -21 -12 -25
-40 -25 -19 0 -34 5 -34 10 0 14 -27 12 -33 -2 -4 -8 -6 -7 -6 3 -1 26 -29 31
-51 9 -11 -11 -29 -20 -40 -20 -18 0 -20 7 -22 93 l-2 92 -6 -80 c-6 -76 -6
-73 -8 47 l-2 127 28 4 c25 4 25 4 -5 6 l-33 1 0 -159z m290 59 c0 -5 -5 -10
-11 -10 -5 0 -7 5 -4 10 3 6 8 10 11 10 2 0 4 -4 4 -10z m-23 -182 c-3 -8 -6
-5 -6 6 -1 11 2 17 5 13 3 -3 4 -12 1 -19z"/>
<path d="M225 60 c-3 -5 -1 -10 4 -10 6 0 11 5 11 10 0 6 -2 10 -4 10 -3 0 -8
-4 -11 -10z"/>
</g>
</svg>
